<svg width="186" height="168" viewBox="0 0 186 168" fill="none" xmlns="http://www.w3.org/2000/svg">
<g style="mix-blend-mode:darken" clip-path="url(#clip0_4_15)" filter="url(#filter0_d_4_15)">
<path fill-rule="evenodd" clip-rule="evenodd" d="M7.09564 37.5942L93.258 2.23254L179.42 37.5942L93.258 7.6728L7.09564 37.5942ZM7.09564 116.478L93.258 160L179.42 113.758L93.258 154.56L7.09564 116.478Z" fill="black"/>
<path d="M78.0538 81.6692H108.314V49.6552H78.0538V81.6692ZM96.3776 62.1686L102.937 55.2296V76.0937H96.3776V62.1686ZM83.4326 55.2296L89.9916 62.1686V76.0937H83.4326V55.2296Z" fill="url(#paint0_linear_4_15)"/>
<path d="M14.1276 93.3129C15.049 93.6804 15.8798 94.2717 16.6199 95.0866C18.2059 96.7805 18.9989 98.9418 18.9989 101.57C18.9989 104.199 18.2059 106.368 16.6199 108.078C15.8798 108.893 15.049 109.484 14.1276 109.852C13.176 110.267 12.2018 110.475 11.2049 110.475H4.79299C4.58153 110.475 4.3965 110.391 4.2379 110.224C4.0793 110.056 4 109.86 4 109.636V107.91C4 107.671 4.0793 107.467 4.2379 107.299C4.3965 107.131 4.58153 107.048 4.79299 107.048H11.1369C12.4812 107.048 13.5725 106.528 14.4108 105.49C15.2492 104.451 15.6683 103.148 15.6683 101.582C15.6683 100.016 15.2492 98.7141 14.4108 97.6754C13.5725 96.6367 12.4812 96.1173 11.1369 96.1173H4.79299C4.58153 96.1173 4.3965 96.0334 4.2379 95.8657C4.0793 95.6979 4 95.4941 4 95.2544V93.5286C4 93.3049 4.0793 93.1091 4.2379 92.9413C4.3965 92.7736 4.58153 92.6897 4.79299 92.6897H11.2049C12.2018 92.6897 13.176 92.8974 14.1276 93.3129V93.3129ZM32.9804 103.596L36.4016 109.133C36.5678 109.421 36.5753 109.708 36.4243 109.996C36.3639 110.124 36.2695 110.228 36.1411 110.307C36.0127 110.387 35.8805 110.427 35.7446 110.427H33.6828C33.5469 110.427 33.4185 110.391 33.2976 110.319C33.1768 110.248 33.0862 110.156 33.0258 110.044L29.5819 104.267H25.549V109.588C25.549 109.812 25.4697 110.008 25.3111 110.176C25.1525 110.343 24.9675 110.427 24.756 110.427H23.0341C22.8226 110.427 22.6376 110.343 22.479 110.176C22.3204 110.008 22.2411 109.812 22.2411 109.588V101.702C22.2411 101.479 22.3204 101.283 22.479 101.115C22.6376 100.947 22.8226 100.863 23.0341 100.863H30.0124C31.3416 100.863 32.2252 100.464 32.6633 99.6649C32.8143 99.4092 32.8898 99.0417 32.8898 98.5623C32.8898 97.8112 32.6557 97.2199 32.1875 96.7885C31.7041 96.3251 31.0093 96.0934 30.103 96.0934H23.0341C22.8226 96.0934 22.6376 96.0095 22.479 95.8417C22.3204 95.6739 22.2411 95.4781 22.2411 95.2544V93.5286C22.2411 93.3049 22.3204 93.1091 22.479 92.9413C22.6376 92.7736 22.8226 92.6897 23.0341 92.6897H30.3069C32.0742 92.6897 33.4865 93.217 34.5438 94.2717C35.6464 95.3263 36.1977 96.7565 36.1977 98.5623C36.1977 99.7288 35.9561 100.724 35.4727 101.546C34.9894 102.369 34.287 102.997 33.3656 103.428L32.9804 103.596ZM51.6293 107.024C51.8559 107.024 52.0447 107.107 52.1958 107.275C52.3468 107.443 52.4223 107.647 52.4223 107.886V109.636C52.4223 109.86 52.3468 110.056 52.1958 110.224C52.0447 110.391 51.8559 110.475 51.6293 110.475H40.4368C40.2254 110.475 40.0403 110.391 39.8817 110.224C39.7231 110.056 39.6438 109.86 39.6438 109.636V107.886C39.6438 107.647 39.7231 107.443 39.8817 107.275C40.0403 107.107 40.2254 107.024 40.4368 107.024H51.6293ZM40.4368 103.308C40.2254 103.308 40.0403 103.224 39.8817 103.057C39.7231 102.889 39.6438 102.693 39.6438 102.469V100.672C39.6438 100.448 39.7231 100.252 39.8817 100.084C40.0403 99.9165 40.2254 99.8327 40.4368 99.8327H50.6098C50.8364 99.8327 51.0289 99.9165 51.1875 100.084C51.3461 100.252 51.4254 100.448 51.4254 100.672V102.469C51.4254 102.693 51.3461 102.889 51.1875 103.057C51.0289 103.224 50.8364 103.308 50.6098 103.308H40.4368V103.308ZM51.6293 92.6897C51.8559 92.6897 52.0447 92.7736 52.1958 92.9413C52.3468 93.1091 52.4223 93.3049 52.4223 93.5286V95.2784C52.4223 95.5181 52.3468 95.7218 52.1958 95.8896C52.0447 96.0574 51.8559 96.1413 51.6293 96.1413H40.4368C40.2254 96.1413 40.0403 96.0574 39.8817 95.8896C39.7231 95.7218 39.6438 95.5181 39.6438 95.2784V93.5286C39.6438 93.3049 39.7231 93.1091 39.8817 92.9413C40.0403 92.7736 40.2254 92.6897 40.4368 92.6897H51.6293ZM70.5728 109.301C70.6785 109.556 70.6521 109.816 70.4935 110.08C70.3349 110.343 70.1196 110.475 69.8478 110.475H54.7583C54.6223 110.475 54.4939 110.439 54.3731 110.367C54.2523 110.295 54.1616 110.204 54.1012 110.092C53.9351 109.836 53.9124 109.572 54.0332 109.301L54.7356 107.551C54.796 107.391 54.8942 107.263 55.0302 107.167C55.1661 107.072 55.3096 107.024 55.4606 107.024H66.0188L62.303 97.6274L59.267 105.298C59.2066 105.458 59.1122 105.581 58.9838 105.669C58.8554 105.757 58.7081 105.801 58.542 105.801H56.6388C56.3518 105.801 56.1252 105.673 55.9591 105.418C55.8987 105.306 55.8609 105.178 55.8458 105.034C55.8307 104.89 55.8458 104.754 55.8911 104.627L60.4905 93.217C60.5509 93.0572 60.6453 92.9294 60.7737 92.8335C60.9021 92.7376 61.0493 92.6897 61.2155 92.6897H63.3905C63.5567 92.6897 63.704 92.7376 63.8324 92.8335C63.9607 92.9294 64.0552 93.0572 64.1156 93.217L70.5728 109.301ZM88.6553 92.6897C88.8667 92.6897 89.0518 92.7736 89.2104 92.9413C89.3689 93.1091 89.4482 93.3049 89.4482 93.5286V109.588C89.4482 109.812 89.3689 110.008 89.2104 110.176C89.0518 110.343 88.8667 110.427 88.6553 110.427H86.9333C86.7068 110.427 86.518 110.343 86.3669 110.176C86.2159 110.008 86.1403 109.812 86.1403 109.588V98.754L81.9488 104.459C81.7827 104.667 81.5712 104.77 81.3144 104.77C81.1936 104.77 81.0727 104.742 80.9519 104.687C80.8311 104.631 80.7404 104.547 80.68 104.435L73.2486 94.032C73.1579 93.9201 73.1051 93.7803 73.09 93.6125C73.0749 93.4447 73.1051 93.2929 73.1806 93.1571C73.2561 93.0212 73.3543 92.9094 73.4751 92.8215C73.596 92.7336 73.7319 92.6897 73.883 92.6897H75.8768C76.1335 92.6897 76.345 92.8015 76.5112 93.0252L81.3144 99.7368L86.0044 93.0252C86.1706 92.8015 86.3896 92.6897 86.6614 92.6897H88.6553V92.6897ZM75.6049 104.315C75.8164 104.315 76.0014 104.395 76.16 104.555C76.3186 104.714 76.3979 104.914 76.3979 105.154V109.588C76.3979 109.812 76.3186 110.008 76.16 110.176C76.0014 110.343 75.8164 110.427 75.6049 110.427H73.883C73.6715 110.427 73.4865 110.343 73.3279 110.176C73.1693 110.008 73.09 109.812 73.09 109.588V105.154C73.09 104.914 73.1693 104.714 73.3279 104.555C73.4865 104.395 73.6715 104.315 73.883 104.315H75.6049ZM99.671 98.8259C99.4596 98.8259 99.2746 98.742 99.116 98.5742C98.9574 98.4065 98.8781 98.2107 98.8781 97.987V93.5286C98.8781 93.3049 98.9574 93.1091 99.116 92.9413C99.2746 92.7736 99.4596 92.6897 99.671 92.6897H101.393C101.62 92.6897 101.808 92.7736 101.959 92.9413C102.11 93.1091 102.186 93.3049 102.186 93.5286V97.987C102.186 98.2107 102.11 98.4065 101.959 98.5742C101.808 98.742 101.62 98.8259 101.393 98.8259H99.671ZM111.974 92.6897C112.185 92.6897 112.37 92.7736 112.529 92.9413C112.687 93.1091 112.767 93.3049 112.767 93.5286V109.636C112.767 109.86 112.687 110.056 112.529 110.224C112.37 110.391 112.185 110.475 111.974 110.475H110.252C110.025 110.475 109.836 110.391 109.685 110.224C109.534 110.056 109.459 109.86 109.459 109.636V103.308H102.186V109.636C102.186 109.86 102.11 110.056 101.959 110.224C101.808 110.391 101.62 110.475 101.393 110.475H99.671C99.4596 110.475 99.2746 110.391 99.116 110.224C98.9574 110.056 98.8781 109.86 98.8781 109.636V100.672C98.8781 100.448 98.9574 100.252 99.116 100.084C99.2746 99.9165 99.4596 99.8327 99.671 99.8327H109.459V93.5286C109.459 93.3049 109.534 93.1091 109.685 92.9413C109.836 92.7736 110.025 92.6897 110.252 92.6897H111.974V92.6897Z" fill="black"/>
<path d="M126.278 110.385C127.337 109.689 128.08 108.497 128.188 107.087C128.296 105.719 127.783 104.451 126.905 103.584C127.049 103.88 127.157 104.199 127.233 104.528C127.45 105.3 127.535 106.134 127.468 106.991C127.369 108.273 126.936 109.441 126.278 110.385Z" fill="#0B2B3D"/>
<path d="M128.157 108.883C129.008 107.997 129.441 106.768 129.206 105.533C128.981 104.337 128.184 103.398 127.13 102.907C127.337 103.122 127.522 103.36 127.67 103.622C128.062 104.218 128.351 104.904 128.495 105.657C128.702 106.777 128.567 107.892 128.157 108.883Z" fill="#0B2B3D"/>
<path d="M122.229 110.475C123.467 110.38 124.652 109.684 125.364 108.483C126.053 107.32 126.157 105.948 125.751 104.747C125.751 105.08 125.711 105.414 125.634 105.743C125.49 106.539 125.206 107.32 124.769 108.049C124.121 109.136 123.224 109.961 122.229 110.475Z" fill="#0B2B3D"/>
<path d="M124.549 110.065C125.693 109.694 126.612 108.812 126.945 107.606C127.265 106.434 126.972 105.214 126.247 104.261C126.337 104.556 126.396 104.856 126.418 105.157C126.508 105.876 126.459 106.625 126.256 107.363C125.954 108.464 125.346 109.384 124.549 110.065Z" fill="#0B2B3D"/>
<path d="M118.598 108.574C119.742 109.093 121.093 109.055 122.251 108.34C123.373 107.654 124.062 106.482 124.229 105.223C124.08 105.519 123.9 105.795 123.688 106.048C123.215 106.677 122.621 107.23 121.913 107.668C120.859 108.316 119.711 108.607 118.598 108.574Z" fill="#0B2B3D"/>
<path d="M120.837 109.346C122.017 109.575 123.215 109.246 124.035 108.34C124.832 107.459 125.103 106.234 124.877 105.038C124.832 105.338 124.751 105.633 124.634 105.914C124.404 106.591 124.035 107.235 123.535 107.787C122.783 108.617 121.841 109.131 120.837 109.346Z" fill="#0B2B3D"/>
<path d="M116.21 105.119C116.994 106.138 118.211 106.763 119.548 106.696C120.846 106.634 121.967 105.934 122.666 104.895C122.404 105.085 122.125 105.242 121.823 105.362C121.134 105.69 120.359 105.891 119.544 105.929C118.328 105.991 117.183 105.686 116.21 105.119Z" fill="#0B2B3D"/>
<path d="M117.859 106.896C118.801 107.678 120.012 107.968 121.139 107.563C122.229 107.173 123.008 106.215 123.328 105.047C123.157 105.29 122.954 105.514 122.733 105.705C122.224 106.196 121.616 106.586 120.931 106.829C119.904 107.196 118.841 107.196 117.859 106.896Z" fill="#0B2B3D"/>
<path d="M115.602 100.882C115.855 102.173 116.661 103.317 117.877 103.913C119.053 104.489 120.355 104.418 121.422 103.841C121.112 103.879 120.792 103.879 120.476 103.841C119.715 103.794 118.945 103.594 118.206 103.236C117.102 102.693 116.215 101.864 115.602 100.882Z" fill="#0B2B3D"/>
<path d="M116.287 103.265C116.783 104.418 117.724 105.266 118.904 105.457C120.039 105.648 121.152 105.176 121.945 104.294C121.688 104.432 121.413 104.532 121.13 104.59C120.463 104.775 119.756 104.828 119.039 104.709C117.972 104.532 117.03 104.013 116.287 103.265Z" fill="#0B2B3D"/>
<path d="M117.012 96.6738C116.647 97.9319 116.832 99.3521 117.625 100.491C118.395 101.592 119.571 102.192 120.774 102.231C120.481 102.107 120.202 101.945 119.94 101.749C119.296 101.32 118.711 100.753 118.224 100.057C117.499 99.0233 117.102 97.8461 117.012 96.6738Z" fill="#0B2B3D"/>
<path d="M116.53 99.1138C116.44 100.377 116.882 101.597 117.828 102.369C118.742 103.112 119.922 103.265 121.021 102.898C120.733 102.879 120.449 102.826 120.17 102.741C119.503 102.564 118.864 102.245 118.287 101.778C117.427 101.077 116.841 100.143 116.53 99.1138Z" fill="#0B2B3D"/>
<path d="M120.003 93.7858C119.129 94.7246 118.674 96.0685 118.882 97.4696C119.08 98.8231 119.864 99.9287 120.913 100.548C120.706 100.3 120.526 100.019 120.382 99.7143C119.999 99.0185 119.724 98.2322 119.602 97.3791C119.413 96.1067 119.571 94.8676 120.003 93.7858Z" fill="#0B2B3D"/>
<path d="M118.512 95.7159C117.882 96.7882 117.737 98.0892 118.238 99.233C118.724 100.339 119.706 101.049 120.841 101.263C120.593 101.111 120.359 100.925 120.156 100.706C119.638 100.224 119.211 99.6285 118.904 98.9327C118.449 97.8986 118.332 96.7786 118.512 95.7159Z" fill="#0B2B3D"/>
<path d="M123.918 92.6897C122.733 93.09 121.742 94.0669 121.314 95.4061C120.9 96.7071 121.107 98.0701 121.769 99.1329C121.697 98.8088 121.661 98.4704 121.661 98.1321C121.625 97.3314 121.729 96.4974 121.985 95.6825C122.377 94.4577 123.062 93.4426 123.918 92.6897Z" fill="#0B2B3D"/>
<path d="M121.751 93.6666C120.724 94.3148 120.026 95.3966 119.972 96.6547C119.918 97.8747 120.481 98.9851 121.395 99.7286C121.238 99.4712 121.116 99.1948 121.03 98.9041C120.783 98.2226 120.661 97.4839 120.693 96.7167C120.742 95.5729 121.13 94.5292 121.751 93.6666Z" fill="#0B2B3D"/>
<path d="M127.869 93.6285C126.643 93.4093 125.337 93.7858 124.368 94.7675C123.436 95.7159 123.026 97.0264 123.143 98.2941C123.224 97.9748 123.337 97.6555 123.49 97.3553C123.805 96.6261 124.26 95.9399 124.85 95.3394C125.729 94.4434 126.783 93.8763 127.869 93.6285Z" fill="#0B2B3D"/>
<path d="M125.522 93.4379C124.328 93.5094 123.238 94.1289 122.639 95.2203C122.057 96.2735 122.071 97.5316 122.553 98.642C122.535 98.3323 122.544 98.0272 122.594 97.727C122.67 97.0026 122.886 96.2878 123.251 95.6253C123.792 94.6341 124.594 93.8954 125.522 93.4379Z" fill="#0B2B3D"/>
<path d="M130.959 96.3926C129.968 95.5967 128.648 95.2965 127.359 95.692C126.116 96.0781 125.184 97.0407 124.733 98.2178C124.945 97.97 125.184 97.746 125.45 97.5554C126.053 97.0598 126.756 96.6738 127.535 96.4355C128.706 96.0733 129.891 96.0828 130.959 96.3926Z" fill="#0B2B3D"/>
<path d="M128.963 95.0773C127.873 94.5531 126.634 94.5721 125.63 95.2489C124.652 95.897 124.112 97.0217 124.058 98.2417C124.17 97.9605 124.319 97.6937 124.49 97.4458C124.877 96.8454 125.377 96.3164 125.99 95.9065C126.909 95.2965 127.941 95.0296 128.963 95.0773Z" fill="#0B2B3D"/>
<path d="M132.495 100.358C131.963 99.1662 130.923 98.2512 129.607 97.9748C128.337 97.7079 127.085 98.1035 126.175 98.9327C126.468 98.8183 126.778 98.7326 127.098 98.6944C127.846 98.5515 128.643 98.5562 129.441 98.723C130.634 98.9708 131.679 99.557 132.495 100.358Z" fill="#0B2B3D"/>
<path d="M131.297 98.2131C130.558 97.2171 129.454 96.6261 128.269 96.731C127.121 96.831 126.152 97.565 125.571 98.6182C125.792 98.4276 126.035 98.2608 126.301 98.1321C126.904 97.7842 127.58 97.5602 128.301 97.4982C129.382 97.4029 130.414 97.6698 131.297 98.2131Z" fill="#0B2B3D"/>
<path d="M132.125 104.623C132.17 103.312 131.652 101.987 130.607 101.101C129.594 100.243 128.314 99.9811 127.143 100.272C127.454 100.31 127.765 100.391 128.067 100.51C128.792 100.753 129.495 101.139 130.13 101.682C131.08 102.483 131.752 103.517 132.125 104.623Z" fill="#0B2B3D"/>
<path d="M131.999 102.135C131.779 100.891 131.058 99.8287 129.959 99.3426C128.896 98.8707 127.715 99.0423 126.742 99.6952C127.026 99.6333 127.314 99.6047 127.603 99.6142C128.292 99.6047 128.99 99.7333 129.657 100.034C130.652 100.477 131.45 101.225 131.999 102.135Z" fill="#0B2B3D"/>
<path d="M129.932 108.226C130.549 107.082 130.661 105.657 130.121 104.361C129.598 103.107 128.58 102.25 127.414 101.93C127.675 102.121 127.914 102.34 128.13 102.593C128.67 103.16 129.125 103.851 129.45 104.642C129.941 105.819 130.085 107.063 129.932 108.226Z" fill="#0B2B3D"/>
<path d="M130.909 105.957C131.256 104.752 131.08 103.451 130.319 102.483C129.585 101.544 128.459 101.12 127.31 101.225C127.589 101.311 127.855 101.425 128.107 101.578C128.724 101.902 129.283 102.364 129.747 102.955C130.436 103.832 130.819 104.88 130.909 105.957Z" fill="#0B2B3D"/>
<path d="M140.858 106.991C141.037 107.054 141.179 107.161 141.284 107.311C141.388 107.461 141.441 107.631 141.441 107.82V109.646C141.441 109.898 141.343 110.112 141.149 110.286C141 110.412 140.836 110.475 140.656 110.475C140.582 110.475 140.529 110.467 140.5 110.451C139.11 110.167 137.915 109.488 136.915 108.413C135.57 106.959 134.898 105.047 134.898 102.676V93.5503C134.898 93.3133 134.976 93.1118 135.133 92.9459C135.29 92.7799 135.473 92.697 135.682 92.697H137.407C137.632 92.697 137.822 92.7799 137.979 92.9459C138.136 93.1118 138.214 93.3133 138.214 93.5503V102.724C138.214 104.225 138.617 105.371 139.424 106.161C139.842 106.572 140.32 106.848 140.858 106.991V106.991ZM148.588 92.697C148.812 92.697 149.003 92.7799 149.159 92.9459C149.316 93.1118 149.395 93.3133 149.395 93.5503V102.676C149.395 105.047 148.723 106.959 147.378 108.413C146.377 109.488 145.182 110.167 143.793 110.451C143.763 110.467 143.711 110.475 143.636 110.475C143.457 110.475 143.293 110.412 143.143 110.286C142.949 110.128 142.852 109.906 142.852 109.622V107.797C142.852 107.623 142.904 107.461 143.009 107.311C143.114 107.161 143.255 107.054 143.435 106.991C144.002 106.817 144.48 106.54 144.869 106.161C145.675 105.402 146.079 104.257 146.079 102.724V93.5503C146.079 93.3133 146.157 93.1118 146.314 92.9459C146.471 92.7799 146.661 92.697 146.885 92.697H148.588V92.697ZM164.297 101.491C164.939 101.918 165.428 102.439 165.765 103.056C166.101 103.672 166.269 104.359 166.269 105.118C166.269 106.904 165.626 108.271 164.342 109.219C163.475 109.883 162.303 110.301 160.824 110.475H160.734C160.525 110.475 160.354 110.404 160.219 110.262C160.04 110.088 159.95 109.883 159.95 109.646V107.939C159.95 107.733 160.017 107.552 160.152 107.394C160.286 107.236 160.451 107.141 160.645 107.109C161.347 107.03 161.892 106.856 162.28 106.588C162.579 106.398 162.781 106.153 162.885 105.853C162.945 105.679 162.975 105.458 162.975 105.189C162.975 105.015 162.945 104.865 162.885 104.739C162.826 104.612 162.721 104.494 162.572 104.383C162.139 104.067 161.578 103.798 160.891 103.577L160.533 103.459C159.786 103.237 159.099 103.056 158.471 102.914C158.337 102.882 158.12 102.827 157.822 102.748L157.575 102.676C157.037 102.534 156.47 102.337 155.872 102.084C154.991 101.689 154.267 101.191 153.699 100.59C153.042 99.8952 152.713 98.9786 152.713 97.8408C152.713 96.2763 153.281 95.0042 154.416 94.0244C155.193 93.3291 156.283 92.8866 157.687 92.697C157.926 92.6654 158.132 92.7365 158.303 92.9103C158.475 93.0841 158.561 93.2896 158.561 93.5266V95.2333C158.561 95.4388 158.501 95.6205 158.382 95.7785C158.262 95.9365 158.109 96.0274 157.922 96.0511C157.736 96.0748 157.545 96.1183 157.351 96.1815C156.918 96.3553 156.612 96.5252 156.432 96.6911C156.253 96.8571 156.126 97.0269 156.052 97.2008C155.977 97.4694 155.94 97.7223 155.94 97.9593C155.94 98.0857 156.007 98.2201 156.141 98.3623C156.35 98.5835 156.657 98.7811 157.06 98.9549C157.239 99.0339 157.553 99.1524 158.001 99.3105L160.802 100.045L160.936 100.093C161.638 100.298 162.146 100.456 162.46 100.567C163.162 100.82 163.774 101.128 164.297 101.491V101.491ZM160.555 96.1341C160.376 96.0867 160.23 95.9879 160.118 95.8378C160.006 95.6877 159.95 95.5099 159.95 95.3044V93.574C159.95 93.3212 160.047 93.1078 160.241 92.934C160.316 92.855 160.413 92.8036 160.533 92.7799C160.652 92.7562 160.764 92.7523 160.869 92.7681C162.183 92.9893 163.251 93.4634 164.073 94.1903C165.193 95.1701 165.791 96.4185 165.865 97.9356C165.88 98.1569 165.809 98.3583 165.653 98.5401C165.496 98.7218 165.305 98.8127 165.081 98.8127H163.334C163.139 98.8127 162.968 98.7416 162.818 98.5993C162.669 98.4571 162.587 98.2833 162.572 98.0778C162.512 97.667 162.385 97.3272 162.191 97.0586C161.877 96.6635 161.392 96.3632 160.734 96.1578C160.69 96.1578 160.66 96.1499 160.645 96.1341H160.555V96.1341ZM157.934 107.014C158.113 107.046 158.262 107.141 158.382 107.299C158.501 107.457 158.561 107.631 158.561 107.82V109.574C158.561 109.827 158.471 110.041 158.292 110.214C158.143 110.341 157.971 110.404 157.777 110.404H157.665C156.276 110.183 155.133 109.701 154.237 108.958C153.072 107.978 152.414 106.611 152.265 104.857C152.235 104.604 152.302 104.387 152.467 104.205C152.631 104.024 152.825 103.933 153.049 103.933H154.819C155.028 103.933 155.208 104.008 155.357 104.158C155.506 104.308 155.588 104.494 155.603 104.715C155.648 105.505 156.014 106.114 156.701 106.54C157.015 106.73 157.426 106.888 157.934 107.014V107.014ZM181.216 106.872C181.44 106.872 181.627 106.955 181.776 107.121C181.925 107.287 182 107.488 182 107.725V109.456C182 109.677 181.925 109.871 181.776 110.037C181.627 110.203 181.44 110.286 181.216 110.286H170.147C169.938 110.286 169.755 110.203 169.598 110.037C169.441 109.871 169.363 109.677 169.363 109.456V107.725C169.363 107.488 169.441 107.287 169.598 107.121C169.755 106.955 169.938 106.872 170.147 106.872H181.216ZM170.147 103.198C169.938 103.198 169.755 103.115 169.598 102.949C169.441 102.783 169.363 102.59 169.363 102.368V100.59C169.363 100.369 169.441 100.176 169.598 100.01C169.755 99.8438 169.938 99.7608 170.147 99.7608H180.208C180.432 99.7608 180.622 99.8438 180.779 100.01C180.936 100.176 181.014 100.369 181.014 100.59V102.368C181.014 102.59 180.936 102.783 180.779 102.949C180.622 103.115 180.432 103.198 180.208 103.198H170.147V103.198ZM181.216 92.697C181.44 92.697 181.627 92.7799 181.776 92.9459C181.925 93.1118 182 93.3054 182 93.5266V95.257C182 95.4941 181.925 95.6956 181.776 95.8615C181.627 96.0274 181.44 96.1104 181.216 96.1104H170.147C169.938 96.1104 169.755 96.0274 169.598 95.8615C169.441 95.6956 169.363 95.4941 169.363 95.257V93.5266C169.363 93.3054 169.441 93.1118 169.598 92.9459C169.755 92.7799 169.938 92.697 170.147 92.697H181.216Z" fill="black"/>
</g>
<defs>
<filter id="filter0_d_4_15" x="0" y="0" width="186" height="168" filterUnits="userSpaceOnUse" color-interpolation-filters="sRGB">
<feFlood flood-opacity="0" result="BackgroundImageFix"/>
<feColorMatrix in="SourceAlpha" type="matrix" values="0 0 0 0 0 0 0 0 0 0 0 0 0 0 0 0 0 0 127 0" result="hardAlpha"/>
<feOffset dy="4"/>
<feGaussianBlur stdDeviation="2"/>
<feComposite in2="hardAlpha" operator="out"/>
<feColorMatrix type="matrix" values="0 0 0 0 0 0 0 0 0 0 0 0 0 0 0 0 0 0 0.25 0"/>
<feBlend mode="normal" in2="BackgroundImageFix" result="effect1_dropShadow_4_15"/>
<feBlend mode="normal" in="SourceGraphic" in2="effect1_dropShadow_4_15" result="shape"/>
</filter>
<linearGradient id="paint0_linear_4_15" x1="78.0538" y1="49.6552" x2="108.314" y2="49.6552" gradientUnits="userSpaceOnUse">
<stop stop-color="#B88746"/>
<stop offset="1" stop-color="#FDF5A6"/>
</linearGradient>
<clipPath id="clip0_4_15">
<rect width="178" height="160" fill="white" transform="translate(4)"/>
</clipPath>
</defs>
</svg>
